<mxfile
  host="Electron" 
  agent="Mozilla/5.0 (Macintosh; Intel Mac OS X 10_15_7) AppleWebKit/537.36 (KHTML, like Gecko) draw.io/25.0.2 Chrome/128.0.6613.186 Electron/32.2.5 Safari/537.36" 
  version="25.0.2"
  >
  <diagram
    name="-"
    >
    <mxGraphModel
      grid="1" 
      gridSize="10" 
      guides="1" 
      tooltips="1" 
      connect="1" 
      arrows="1" 
      fold="1" 
      page="1" 
      pageScale="1" 
      pageWidth="1" 
      pageHeight="1" 
      math="0" 
      shadow="0"
      >
      <root>
        <mxCell
          id="page"
          />
        <mxCell
          id="root" 
          parent="page"
          />
        <mxCell
          style="verticalAlign=top;aspect=fixed;align=center;spacingLeft=5;spacingRight=5;spacingBottom=5;strokeColor=none;" 
          id="shape_" 
          parent="root" 
          value=" " 
          vertex="1"
          >
          <mxGeometry
            as="geometry" 
            width="92" 
            height="102" 
            x="0" 
            y="0"
            />
          </mxCell>
        <mxCell
          style="rounded=1;whiteSpace=wrap;verticalAlign=top;align=center;sketch=0;html=1;labelPosition=center;verticalLabelPosition=bottom;spacingTop=-6;fontSize=11;fontStyle=1;fontColor=#999999;shape=image;aspect=fixed;imageAspect=0;image=data:image/svg+xml,PHN2ZyB4bWxucz0iaHR0cDovL3d3dy53My5vcmcvMjAwMC9zdmciIGlkPSJzdmc0Njc2OCIgdmVyc2lvbj0iMS4xIiB2aWV3Qm94PSIwIDAgMjA5LjI1MjM1IDI3Ni4yMDM1NSIgaGVpZ2h0PSIyNzYuMjAzNTVtbSIgd2lkdGg9IjIwOS4yNTIzNW1tIj4mI3hhOyAgJiN4YTsgIDxkZWZzIGlkPSJkZWZzNDY3NjUiLz4mI3hhOyAgPGcgdHJhbnNmb3JtPSJ0cmFuc2xhdGUoLTEuNTA3ODU5NSwtOS43NzkzNzgzKSIgaWQ9ImxheWVyMSI+JiN4YTsgICAgPHBhdGggZD0ibSAxNjMuNTk1NTcsMTE2LjE0MjAyIDQ3LjE2NDY1LDI4LjAyNDMyIHYgNDQuNjM2NjcgYyAwLDcuOTYwNyAtMy40MjYyMSwxMi40MDk0NiAtOS4yNDUxNSwxNi4zMjM0NCBMIDY3LjE5MzQ2OSwyODQuMDUxNiBjIC01LjUxNDE1MywzLjU4NCAtOS4zNzkzMjUsMS45MjYyMSAtOS4zNzkzMjUsLTIuODgzMDkgViAyMzMuNTczODggTCAxNjMuNTk1NTcsMTcwLjc0NjExIFogTSA2Mi42MjEzNTIsODcuNjg0MzM5IFYgMzEuOTI0NjEgTCA5NS4zNDA0NjUsMTMuMDAwOTczIGMgNy41MTQzMTUsLTQuNjAxODcxNyAxNS4wOTIwNzUsLTQuMDk5MzAzNiAyMS42MDg0NDUsMC4zOTczOTkgbCA4MS4zODgxNSw0Ny4xMjgzOCBjIDkuODcwMDUsNS42MDQwNTkgMTIuMzU2MzksMTAuNTc3OTI4IDEyLjQyMzE2LDIwLjA3OTI3OCBWIDEyNS40MjIyIEwgMTA1LjU5Njc4LDYzLjEyNjk0NSBaIE0gNDIuOTAzMjA4LDIyNC4wNTAxIDEzLjI4OTg4MywyMDYuODU5OTIgQyA2LjE0MjIzOTgsMjAyLjQ2OTU1IDEuNTE2NzgwMSwxOTkuNzUwMTcgMS41MTY3ODAxLDE4Ny42NDczNyBWIDgzLjYzOTU5MiBDIDEuMzk4NjksNzQuMDk4NDc5IDIuMzAzMDU2OSw2OC41MDEzMjkgMTMuNDM0MzM4LDYxLjk3MTMwNCBMIDQ3LjIzNjg2Nyw0Mi4xODA5MzMgViAxNzEuMTc5NDggbCA0My4wNDc2NjYsMjQuNzAxODQgeiIgc3R5bGU9Im9wYWNpdHk6MTtmaWxsOiM1OTg2ZjI7ZmlsbC1vcGFjaXR5OjE7c3Ryb2tlOm5vbmU7c3Ryb2tlLXdpZHRoOjAuMjY0NTgzcHg7c3Ryb2tlLWxpbmVjYXA6YnV0dDtzdHJva2UtbGluZWpvaW46bWl0ZXI7c3Ryb2tlLW9wYWNpdHk6MSIgaWQ9InBhdGg0NjkwNiIvPiYjeGE7ICA8L2c+JiN4YTs8L3N2Zz4;strokeColor=none;" 
          id="contact_center_ai_" 
          parent="shape_" 
          value=" " 
          vertex="1"
          >
          <mxGeometry
            width="32" 
            height="42" 
            as="geometry" 
            x="30" 
            y="30"
            />
          </mxCell>
        </root>
      </mxGraphModel>
    </diagram>
  </mxfile>